<?xml version="1.0" encoding="UTF-8" standalone="no"?>
<svg width="19px" height="23px" viewBox="0 0 19 23" version="1.1" xmlns="http://www.w3.org/2000/svg" xmlns:xlink="http://www.w3.org/1999/xlink">
    <!-- Generator: Sketch 3.6.1 (26313) - http://www.bohemiancoding.com/sketch -->
    <title>apple-store-logo</title>
    <desc>Created with Sketch.</desc>
    <defs></defs>
    <g id="Page-1" stroke="none" stroke-width="1" fill="none" fill-rule="evenodd">
        <g id="home" transform="translate(-856.000000, -4069.000000)" fill="#6F6F6F">
            <g id="Group-9" transform="translate(-21.000000, 3894.000000)">
                <g id="Group-11" transform="translate(859.000000, 165.000000)">
                    <g id="Group-7" transform="translate(18.000000, 10.000000)">
                        <g id="apple-store-logo">
                            <path d="M15.3735129,12.8041118 C15.3450279,10.0480933 17.7083667,8.72624813 17.814037,8.6594704 C16.4858075,6.79013631 14.4165078,6.53363909 13.6800318,6.50445147 C11.9203919,6.33242144 10.2448288,7.50213723 9.35214469,7.50213723 C8.46129828,7.50213723 7.0820714,6.52965896 5.62290266,6.55442421 C3.70337904,6.58184287 1.93409099,7.62905913 0.946303585,9.283024 C-1.04718923,12.6117389 0.436329622,17.5448881 2.37882504,20.2465114 C3.32847926,21.5670299 4.46098901,23.0529449 5.94680504,22.9985498 C7.37886706,22.9441547 7.9191638,22.1070008 9.65031866,22.1070008 C11.3814735,22.1070008 11.8675568,22.9985498 13.3823173,22.9706889 C14.9223468,22.9437124 15.8986483,21.6249629 16.8404921,20.2991376 C17.9307337,18.7650188 18.3796027,17.2795461 18.40625,17.2043659 C18.3727112,17.1893299 15.4042952,16.0947943 15.3735129,12.8041118 L15.3735129,12.8041118 Z" id="Shape"></path>
                            <path d="M12.2560774,4.48681002 C13.1751064,3.29756261 13.7977955,1.64506847 13.6284583,8.8817842e-16 C12.3021628,0.0571204331 10.6966754,0.939631125 9.74442207,2.12773613 C8.89130593,3.18217933 8.1453652,4.86094886 8.3452473,6.47631471 C9.82480361,6.59855244 11.3338332,5.67377262 12.2560774,4.48681002 L12.2560774,4.48681002 Z" id="Shape"></path>
                        </g>
                    </g>
                </g>
            </g>
        </g>
    </g>
</svg>