<?xml version="1.0" encoding="UTF-8" standalone="no"?>
<svg width="1455px" height="583px" viewBox="0 0 1455 583" version="1.1" xmlns="http://www.w3.org/2000/svg" xmlns:xlink="http://www.w3.org/1999/xlink">
    <!-- Generator: Sketch 3.6.1 (26313) - http://www.bohemiancoding.com/sketch -->
    <title>chart-bg</title>
    <desc>Created with Sketch.</desc>
    <defs>
        <rect id="path-1" x="0" y="0" width="1455" height="583"></rect>
        <linearGradient x1="46.8055606%" y1="5.17700963%" x2="46.8055606%" y2="105.17701%" id="linearGradient-3">
            <stop stop-color="#FFFFFF" offset="0%"></stop>
            <stop stop-color="#FFFFFF" stop-opacity="0" offset="100%"></stop>
        </linearGradient>
        <path id="path-4" d="M7,749.030986 L1599,749.030986 L1592,404.030986 C1592,404.030986 1545.04454,57.5520042 1486,53.030986 C1460.76586,51.0988177 1427.5,140.030986 1408,179.030986 C1388.5,218.030986 1354.38862,303.253051 1323,301.030986 C1295.63287,299.09361 1266.85556,287.058717 1237,285.030986 C1209.19916,283.142807 1176.41045,338.937593 1147,337.030986 C1118.8614,335.20683 1090.13864,294.820262 1061,293.030986 C1030.34745,291.148748 1002.04766,362.830989 970.814009,361.044805 C942.234378,359.410399 902.25034,271.526199 866,272 C830.351596,272.465934 799.5,364.030975 760,364.030975 C720.5,364.030975 715,328 652,328 C581.788626,328 586,378 543,378 C484.92225,378 483.895061,342.030986 454,342.030986 C424.580729,342.030986 395.290365,411.030986 366,411.030986 C337.914062,411.030986 305.957031,393.030986 278,393.030986 C249.580729,393.030986 220.290365,422.030986 192,422.030986 C162.914062,422.030986 132.957031,364.030986 104,364.030986 C68.5807292,364.030986 0,404.030986 0,404.030986 L7,749.030986 Z"></path>
    </defs>
    <g id="Page-1" stroke="none" stroke-width="1" fill="none" fill-rule="evenodd">
        <g id="chart-bg">
            <mask id="mask-2" fill="white">
                <use xlink:href="#path-1"></use>
            </mask>
            <use id="Mask" fill="#009CDF" xlink:href="#path-1"></use>
            <g id="Group-5" mask="url(#mask-2)">
                <g transform="translate(-8.000000, 0.000000)">
                    <rect id="Rectangle-1371" stroke="none" fill="#009CDF" fill-rule="evenodd" x="9" y="0" width="1455" height="583"></rect>
                    <mask id="mask-5" fill="white">
                        <use xlink:href="#path-4"></use>
                    </mask>
                    <use id="Mask" stroke="none" fill="url(#linearGradient-3)" fill-rule="evenodd" opacity="0.129850746" xlink:href="#path-4"></use>
                    <g id="Group-4" opacity="0.2" stroke="none" stroke-width="1" fill="none" fill-rule="evenodd" mask="url(#mask-5)">
                        <g transform="translate(-4.000000, 282.000000)" id="Rectangle-1384" fill="#D8D8D8">
                            <rect opacity="0.1" x="88" y="4.54747351e-13" width="88" height="299.860307"></rect>
                            <rect opacity="0.1" x="264" y="4.54747351e-13" width="88" height="299.860307"></rect>
                            <rect opacity="0.4" x="0" y="4.54747351e-13" width="88" height="299.860307"></rect>
                            <rect opacity="0.4" x="176" y="4.54747351e-13" width="88" height="299.860307"></rect>
                            <rect opacity="0.4" x="352" y="4.54747351e-13" width="88" height="299.860307"></rect>
                        </g>
                    </g>
        
                    <g id="Group-4" opacity="0.2" stroke="none" stroke-width="1" fill="none" fill-rule="evenodd" mask="url(#mask-5)">
                        <g transform="translate(1138.000000, -1.000000)" id="Rectangle-1384" fill="#D8D8D8">
                            <rect opacity="0.1" x="0" y="0" width="88" height="583"></rect>
                            <rect opacity="0.1" x="176" y="0" width="88" height="583"></rect>
                            <rect opacity="0.4" x="88" y="0" width="88" height="583"></rect>
                            <rect opacity="0.4" x="264" y="0" width="88" height="583"></rect>
                        </g>
                    </g>
                    <g id="Group-4" opacity="0.2" stroke="none" stroke-width="1" fill="none" fill-rule="evenodd" mask="url(#mask-5)">
                        <g transform="translate(436.000000, 55.000000)" id="Rectangle-1384" fill="#D8D8D8">
                            <rect opacity="0.1" x="0" y="0" width="88" height="527"></rect>
                            <rect opacity="0.1" x="176" y="0" width="88" height="527"></rect>
                            <rect opacity="0.4" x="88" y="0" width="88" height="527"></rect>
                            <rect opacity="0.4" x="264" y="0" width="88" height="527"></rect>
                        </g>
                    </g>
                </g>
            </g>
            <circle id="Oval-15" stroke-opacity="0.231855752" stroke="#FFFFFF" stroke-width="10" fill="#FFFFFF" opacity="0.3" mask="url(#mask-2)" cx="252" cy="395" r="5"></circle>
            <circle id="Oval-15" stroke-opacity="0.231855752" stroke="#FFFFFF" stroke-width="10" fill="#FFFFFF" opacity="0.3" mask="url(#mask-2)" cx="692" cy="338" r="5"></circle>
            <circle id="Oval-15" stroke-opacity="0.231855752" stroke="#FFFFFF" stroke-width="10" fill="#FFFFFF" opacity="0.3" mask="url(#mask-2)" cx="779" cy="350" r="5"></circle>
            <circle id="Oval-15" stroke-opacity="0.231855752" stroke="#FFFFFF" stroke-width="10" fill="#FFFFFF" opacity="0.3" mask="url(#mask-2)" cx="164" cy="416" r="5"></circle>
            <circle id="Oval-15" stroke-opacity="0.231855752" stroke="#FFFFFF" stroke-width="10" fill="#FFFFFF" opacity="0.3" mask="url(#mask-2)" cx="77" cy="368" r="5"></circle>
            <circle id="Oval-15" stroke-opacity="0.231855752" stroke="#FFFFFF" stroke-width="10" fill="#FFFFFF" opacity="0.3" mask="url(#mask-2)" cx="338" cy="409" r="5"></circle>
            <circle id="Oval-15" stroke-opacity="0.231855752" stroke="#FFFFFF" stroke-width="10" fill="#FFFFFF" opacity="0.3" mask="url(#mask-2)" cx="427" cy="349" r="5"></circle>
            <circle id="Oval-15" stroke-opacity="0.231855752" stroke="#FFFFFF" stroke-width="10" fill="#FFFFFF" opacity="0.3" mask="url(#mask-2)" cx="516" cy="376" r="5"></circle>
            <circle id="Oval-15" stroke-opacity="0.231855752" stroke="#FFFFFF" stroke-width="10" fill="#FFFFFF" opacity="0.3" mask="url(#mask-2)" cx="603" cy="336" r="5"></circle>
            <circle id="Oval-15" stroke-opacity="0.231855752" stroke="#FFFFFF" stroke-width="10" fill="#FFFFFF" opacity="0.3" mask="url(#mask-2)" cx="866" cy="274" r="5"></circle>
            <circle id="Oval-15" stroke-opacity="0.231855752" stroke="#FFFFFF" stroke-width="10" fill="#FFFFFF" opacity="0.3" mask="url(#mask-2)" cx="958" cy="359" r="5"></circle>
            <circle id="Oval-15" stroke-opacity="0.231855752" stroke="#FFFFFF" stroke-width="10" fill="#FFFFFF" opacity="0.3" mask="url(#mask-2)" cx="1043" cy="294" r="5"></circle>
            <circle id="Oval-15" stroke-opacity="0.231855752" stroke="#FFFFFF" stroke-width="10" fill="#FFFFFF" opacity="0.3" mask="url(#mask-2)" cx="1131" cy="335" r="5"></circle>
            <circle id="Oval-15" stroke-opacity="0.231855752" stroke="#FFFFFF" stroke-width="10" fill="#FFFFFF" opacity="0.3" mask="url(#mask-2)" cx="1217" cy="287" r="5"></circle>
            <circle id="Oval-15" stroke-opacity="0.231855752" stroke="#FFFFFF" stroke-width="10" fill="#FFFFFF" opacity="0.3" mask="url(#mask-2)" cx="1307" cy="300" r="5"></circle>
            <circle id="Oval-15" stroke-opacity="0.231855752" stroke="#FFFFFF" stroke-width="10" fill="#FFFFFF" opacity="0.3" mask="url(#mask-2)" cx="1391" cy="195" r="5"></circle>
            <circle id="Oval-15" stroke-opacity="0.231855752" stroke="#FFFFFF" stroke-width="10" fill="#FFFFFF" opacity="0.3" mask="url(#mask-2)" cx="1455" cy="70" r="5"></circle>
        </g>
    </g>
</svg>