<?xml version="1.0" encoding="UTF-8" standalone="no"?>
<svg width="23px" height="22px" viewBox="0 0 23 22" version="1.1" xmlns="http://www.w3.org/2000/svg" xmlns:xlink="http://www.w3.org/1999/xlink">
    <!-- Generator: Sketch 3.6.1 (26313) - http://www.bohemiancoding.com/sketch -->
    <title>checkmark</title>
    <desc>Created with Sketch.</desc>
    <defs></defs>
    <g id="Page-1" stroke="none" stroke-width="1" fill="none" fill-rule="evenodd">
        <g id="home" transform="translate(-832.000000, -2669.000000)" fill="#B0E93D">
            <path d="M854.685319,2671.17064 C854.321188,2671.73707 853.936828,2672.32372 853.572697,2672.89015 C852.621912,2674.28598 851.691355,2675.70235 850.760497,2677.11841 C849.627646,2678.81769 848.515024,2680.49674 847.381871,2682.19631 C846.370397,2683.71353 845.358923,2685.23074 844.367376,2686.74825 C843.80095,2687.57766 843.254754,2688.4273 842.688329,2689.23648 C841.980297,2690.22772 840.463085,2690.95629 839.289473,2690.36933 C838.824195,2690.1468 838.257769,2689.70176 837.954327,2689.27694 C837.913868,2689.21625 837.873409,2689.15556 837.812721,2689.09487 C837.691344,2688.91281 837.569967,2688.75097 837.44859,2688.5689 C837.266525,2688.30592 837.084459,2688.04294 836.902394,2687.77995 C836.67987,2687.45628 836.457345,2687.15284 836.214591,2686.82917 C835.971838,2686.46504 835.708854,2686.10091 835.4661,2685.75701 C835.203117,2685.37265 834.940134,2685.00851 834.677151,2684.64408 C834.434397,2684.30018 834.171413,2683.93605 833.92866,2683.57192 C833.706135,2683.24825 833.483611,2682.92458 833.240857,2682.6009 C833.079021,2682.35815 832.896956,2682.1154 832.71489,2681.85241 C832.573284,2681.65012 832.431678,2681.44782 832.290071,2681.24523 C832.269842,2681.2253 832.249612,2681.18454 832.229383,2681.14408 C832.108006,2680.94178 832.047317,2680.71926 832.006858,2680.47651 C831.9664,2680.11238 832.108006,2679.72802 832.35076,2679.46503 C832.573284,2679.24251 832.876726,2679.08067 833.180169,2678.99975 C833.180169,2678.99975 833.584758,2678.85815 834.252633,2679.28297 L839.97788,2684.07766 C840.382469,2683.63261 840.766829,2683.16733 841.171419,2682.70205 C842.142434,2681.58943 843.133981,2680.45658 844.104996,2679.34365 C845.318766,2677.96805 846.512305,2676.57222 847.705845,2675.19631 C848.798237,2673.96231 849.890931,2672.72831 850.963094,2671.47408 C851.590208,2670.72559 852.217322,2669.9768 852.945583,2669.289 C853.512009,2668.76303 854.199811,2669.02601 854.685319,2669.51152 C854.685319,2669.51152 855.393351,2670.21986 854.685319,2671.17064 L854.685319,2671.17064 Z" id="checkmark"></path>
        </g>
    </g>
</svg>