<?xml version="1.0" encoding="UTF-8" standalone="no"?>
<svg width="41px" height="41px" viewBox="0 0 41 41" version="1.1" xmlns="http://www.w3.org/2000/svg" xmlns:xlink="http://www.w3.org/1999/xlink">
    <!-- Generator: Sketch 3.6.1 (26313) - http://www.bohemiancoding.com/sketch -->
    <title>icon-soon</title>
    <desc>Created with Sketch.</desc>
    <defs></defs>
    <g id="Page-1" stroke="none" stroke-width="1" fill="none" fill-rule="evenodd">
        <g id="pricing_v4" transform="translate(-152.000000, -1081.000000)" fill="#009CE2">
            <g id="1458577532_InterfaceExpendet-01" transform="translate(152.000000, 1081.000000)">
                <g id="Слой_1">
                    <g id="icon-soon">
                        <path d="M35.2002241,9.93177911 C34.8669577,9.93177911 34.5354578,9.79253877 34.2969899,9.51943654 L34.2113181,9.42202807 C33.76765,8.91795418 33.8103386,8.14436367 34.3067053,7.69377477 C34.8036607,7.24408231 35.5655805,7.28710936 36.0095431,7.79058563 L36.1022806,7.89636049 C36.5438879,8.40222718 36.4976663,9.17581769 35.9992389,9.62401616 C35.7698975,9.83018741 35.4843247,9.93177911 35.2002241,9.93177911 L35.2002241,9.93177911 Z" id="Shape"></path>
                        <path d="M37.0090476,12.3795403 C36.6757812,12.3795403 36.3442814,12.2403 36.1058134,11.9671977 L36.0201416,11.8697893 C35.5764735,11.3657154 35.6191622,10.5921249 36.1155288,10.141536 C36.6124842,9.6918435 37.374404,9.73457174 37.8183666,10.2383468 L37.9111041,10.3441217 C38.3527115,10.8499884 38.3064899,11.6235789 37.8080625,12.0717774 C37.578721,12.2779486 37.2931483,12.3795403 37.0090476,12.3795403 L37.0090476,12.3795403 Z" id="Shape"></path>
                        <path d="M38.194616,15.4520902 C37.7120864,15.4520902 37.2566421,15.1562792 37.0708726,14.6725236 L37.0243566,14.553004 C36.7785286,13.9246298 37.0811768,13.2131895 37.7000158,12.9636923 C38.3197381,12.7147927 39.0204217,13.0213605 39.2659553,13.6494359 L39.3177706,13.7832979 C39.5597714,14.4128673 39.2530015,15.1225149 38.632396,15.3681277 C38.4887264,15.4251982 38.3403464,15.4520902 38.194616,15.4520902 L38.194616,15.4520902 Z" id="Shape"></path>
                        <path d="M38.7975572,18.5117917 C38.3150276,18.5117917 37.8595832,18.2159807 37.6738138,17.7322251 L37.6272978,17.6127055 C37.3814698,16.9843313 37.6841179,16.2728909 38.302957,16.0233938 C38.9223849,15.7744942 39.6230684,16.081062 39.8688965,16.7091374 L39.9207118,16.8429994 C40.1627126,17.4725688 39.8559427,18.1822164 39.2353372,18.4278292 C39.0916676,18.4848997 38.9432876,18.5117917 38.7975572,18.5117917 L38.7975572,18.5117917 Z" id="Shape"></path>
                        <path d="M2.99498078,15.532467 C2.86161538,15.532467 2.72589471,15.5097583 2.59282372,15.4622493 C1.96485813,15.2366561 1.63600787,14.5374664 1.85798916,13.9001282 C4.6601347,5.86064305 12.1910113,0.458955224 20.597448,0.458955224 C25.0420783,0.458955224 29.2452967,1.91530141 32.7519531,4.67022794 C33.0787425,4.92689626 33.3972886,5.19372377 33.707297,5.47011279 C34.2074908,5.91621965 34.2566564,6.68951141 33.81711,7.19746965 C33.3775635,7.70483033 32.6159381,7.75502853 32.1151554,7.30892167 C31.8428309,7.06599807 31.5625575,6.83144093 31.2755127,6.60554886 C28.1954489,4.18587481 24.5030231,2.90671642 20.597448,2.90671642 C13.2108298,2.90671642 6.59378593,7.65254052 4.13197234,14.716447 C3.95680147,15.2187281 3.49164176,15.532467 2.99498078,15.532467 L2.99498078,15.532467 Z" id="Shape"></path>
                        <path d="M6.07887175,33.6178725 C5.74766628,33.6178725 5.4176384,33.4801262 5.17946488,33.2097131 L5.08319447,33.0994563 C4.64394242,32.5911992 4.69369682,31.8182063 5.1944795,31.3723982 C5.69496777,30.9262914 6.45688759,30.977386 6.89613965,31.4853442 L6.97768979,31.5782707 C7.42135791,32.0823446 7.37866925,32.8559351 6.88230263,33.306524 C6.65207804,33.5150857 6.3650333,33.6178725 6.07887175,33.6178725 L6.07887175,33.6178725 Z" id="Shape"></path>
                        <path d="M4.27004822,31.1701113 C3.93884275,31.1701113 3.60881487,31.032365 3.37064135,30.7619519 L3.27437094,30.6516951 C2.83511889,30.143438 2.88487329,29.3704451 3.38565597,28.924637 C3.88584982,28.4779326 4.64776965,28.529326 5.08731612,29.037583 L5.16886626,29.1305095 C5.61253438,29.6345834 5.56984572,30.4081739 5.0734791,30.8587628 C4.84325451,31.0673245 4.55620977,31.1701113 4.27004822,31.1701113 L4.27004822,31.1701113 Z" id="Shape"></path>
                        <path d="M3.04414635,28.1232582 C2.56456079,28.1232582 2.11088289,27.830734 1.9230526,27.3508629 L1.87035416,27.2143118 C1.62982537,26.5841447 1.9383617,25.8753935 2.55955596,25.630976 C3.18045586,25.3883512 3.87907861,25.6999986 4.11960735,26.3304644 L4.16465127,26.4472948 C4.41047931,27.0756691 4.10783112,27.7871094 3.48899207,28.0366066 C3.34296732,28.0954699 3.19223202,28.1232582 3.04414635,28.1232582 L3.04414635,28.1232582 Z" id="Shape"></path>
                        <path d="M2.44120518,25.0635567 C1.96161962,25.0635567 1.50794171,24.7710325 1.32011143,24.2911614 L1.26741298,24.1546103 C1.02688419,23.5244432 1.33542053,22.8156921 1.95661478,22.5712745 C2.57751468,22.3283509 3.27584302,22.6402971 3.51666617,23.2707629 L3.5617101,23.3875933 C3.80753814,24.0159676 3.50488994,24.7274079 2.8860509,24.9769051 C2.74002614,25.0357684 2.58929085,25.0635567 2.44120518,25.0635567 L2.44120518,25.0635567 Z" id="Shape"></path>
                        <path d="M1.50794177,17.4725688 C1.29420383,17.4725688 1.08105472,17.4149006 0.891457996,17.3004606 C0.528751194,17.0814409 0.305297878,16.6861299 0.302059421,16.2576522 L0.250538579,9.17656468 C0.245533685,8.50068139 0.781644922,7.95522388 1.44758875,7.95522388 L1.45671529,7.95522388 C2.11853741,7.95522388 2.65729833,8.48574148 2.66230322,9.15863673 L2.69910386,14.2226071 L7.10693361,11.8341201 C7.69397691,11.516198 8.42468983,11.7397557 8.738231,12.336756 C9.05177217,12.9331588 8.8292021,13.67376 8.24156996,13.9916822 L2.07525992,17.3289072 C1.89773378,17.4251204 1.70283781,17.4725688 1.50794177,17.4725688 L1.50794177,17.4725688 Z" id="Shape"></path>
                        <path d="M20.402552,40.7263002 C15.9579217,40.7263002 11.7547033,39.269954 8.24804688,36.5150274 C7.92125746,36.2583591 7.6027114,35.9915316 7.29270304,35.7151426 C6.79250919,35.2690357 6.74334356,34.495744 7.18289003,33.9877857 C7.6224365,33.4807239 8.3840619,33.4305257 8.88484459,33.8763337 C9.15716912,34.1192573 9.43744253,34.3538145 9.72448726,34.5797065 C12.804551,36.9993806 16.4969769,38.278539 20.4025519,38.278539 C27.7891702,38.278539 34.406214,33.5327149 36.8680276,26.4688084 C37.0903032,25.8320678 37.7795051,25.4983093 38.4071763,25.7230062 C39.0351419,25.9485994 39.3639921,26.647789 39.1420108,27.2851272 C36.3398653,35.3246123 28.8089887,40.7263002 20.402552,40.7263002 L20.402552,40.7263002 Z" id="Shape"></path>
                        <path d="M39.5432847,33.0447761 C38.8814626,33.0447761 38.3427017,32.6068862 38.3376968,31.933991 L38.3008961,26.9163345 L33.8930664,29.3279783 C33.3057287,29.6459004 32.5747214,29.4330249 32.261769,28.8369209 C31.9482278,28.2405181 32.1707979,27.5057061 32.75843,27.187784 L38.9247401,23.8534536 C39.2968678,23.6514655 39.7458353,23.6641504 40.1085421,23.8831701 C40.4712489,24.1021897 40.6947022,24.4983131 40.6979406,24.9267909 L40.7494615,31.9156569 C40.7544663,32.5915401 40.2183551,33.0447761 39.5524113,33.0447761 L39.5432847,33.0447761 L39.5432847,33.0447761 Z" id="Shape"></path>
                    </g>
                </g>
            </g>
        </g>
    </g>
</svg>