<?xml version="1.0" encoding="UTF-8" standalone="no"?>
<svg width="106px" height="112px" viewBox="0 0 106 112" version="1.1" xmlns="http://www.w3.org/2000/svg" xmlns:xlink="http://www.w3.org/1999/xlink">
    <!-- Generator: Sketch 3.6.1 (26313) - http://www.bohemiancoding.com/sketch -->
    <title>icon-alignment</title>
    <desc>Created with Sketch.</desc>
    <defs></defs>
    <g id="Page-1" stroke="none" stroke-width="1" fill="none" fill-rule="evenodd">
        <g id="home" transform="translate(-667.000000, -1708.000000)">
            <g id="icon-alignment" transform="translate(667.000000, 1708.000000)">
                <g id="1457127175_seo3-78">
                    <g id="Layer_1">
                        <path d="M40.4727273,36.0137931 L23.9945455,56 C24.4763636,56.3862069 24.8618182,56.8689655 25.3436364,57.4482759 L42.6890909,36.4 C41.8218182,36.2068966 41.1472727,36.1103448 40.4727273,36.0137931 L40.4727273,36.0137931 Z" id="Shape" fill="#ACDCF1"></path>
                        <path d="M66.0090909,35.9172414 C65.3345455,36.0137931 64.66,36.2068966 63.8890909,36.3034483 L80.0781818,56.4827586 C80.56,56.0965517 81.1381818,55.7103448 81.62,55.4206897 L66.0090909,35.9172414 L66.0090909,35.9172414 Z" id="Shape" fill="#ACDCF1"></path>
                        <path d="M8.38363636,99.2551724 C10.6963636,99.2551724 12.6236364,101.186207 12.6236364,103.503448 C12.6236364,105.82069 10.6963636,107.751724 8.38363636,107.751724 C6.07090909,107.751724 4.14363636,105.82069 4.14363636,103.503448 C4.14363636,101.186207 6.07090909,99.2551724 8.38363636,99.2551724 L8.38363636,99.2551724 Z M8.38363636,95.3931034 C3.95090909,95.3931034 0.289090909,99.062069 0.289090909,103.503448 C0.289090909,107.944828 3.95090909,111.613793 8.38363636,111.613793 C12.8163636,111.613793 16.4781818,107.944828 16.4781818,103.503448 C16.4781818,98.9655172 12.8163636,95.3931034 8.38363636,95.3931034 L8.38363636,95.3931034 L8.38363636,95.3931034 Z" id="Shape" fill="#009CDF"></path>
                        <path d="M38.16,99.2551724 C40.4727273,99.2551724 42.4,101.186207 42.4,103.503448 C42.4,105.82069 40.4727273,107.751724 38.16,107.751724 C35.8472727,107.751724 33.92,105.82069 33.92,103.503448 C33.92,101.186207 35.7509091,99.2551724 38.16,99.2551724 L38.16,99.2551724 Z M38.16,95.3931034 C33.7272727,95.3931034 30.0654545,99.062069 30.0654545,103.503448 C30.0654545,107.944828 33.7272727,111.613793 38.16,111.613793 C42.5927273,111.613793 46.2545455,107.944828 46.2545455,103.503448 C46.2545455,98.9655172 42.5927273,95.3931034 38.16,95.3931034 L38.16,95.3931034 L38.16,95.3931034 Z" id="Shape" fill="#009CDF"></path>
                        <path d="M67.84,99.2551724 C70.1527273,99.2551724 72.08,101.186207 72.08,103.503448 C72.08,105.82069 70.1527273,107.751724 67.84,107.751724 C65.5272727,107.751724 63.6,105.82069 63.6,103.503448 C63.6,101.186207 65.5272727,99.2551724 67.84,99.2551724 L67.84,99.2551724 Z M67.84,95.3931034 C63.4072727,95.3931034 59.7454545,99.062069 59.7454545,103.503448 C59.7454545,107.944828 63.4072727,111.613793 67.84,111.613793 C72.2727273,111.613793 75.9345455,107.944828 75.9345455,103.503448 C75.9345455,98.9655172 72.3690909,95.3931034 67.84,95.3931034 L67.84,95.3931034 L67.84,95.3931034 Z" id="Shape" fill="#009CDF"></path>
                        <path d="M97.6163636,99.2551724 C99.9290909,99.2551724 101.856364,101.186207 101.856364,103.503448 C101.856364,105.82069 99.9290909,107.751724 97.6163636,107.751724 C95.3036364,107.751724 93.3763636,105.82069 93.3763636,103.503448 C93.3763636,101.186207 95.3036364,99.2551724 97.6163636,99.2551724 L97.6163636,99.2551724 Z M97.6163636,95.3931034 C93.1836364,95.3931034 89.5218182,99.062069 89.5218182,103.503448 C89.5218182,107.944828 93.1836364,111.613793 97.6163636,111.613793 C102.049091,111.613793 105.710909,107.944828 105.710909,103.503448 C105.710909,98.9655172 102.145455,95.3931034 97.6163636,95.3931034 L97.6163636,95.3931034 L97.6163636,95.3931034 Z" id="Shape" fill="#009CDF"></path>
                        <path d="M86.7272727,56.0965517 C90.5818182,56.0965517 93.7618182,59.2827586 93.7618182,63.1448276 C93.7618182,67.0068966 90.5818182,70.1931034 86.7272727,70.1931034 C82.8727273,70.1931034 79.6927273,67.0068966 79.6927273,63.1448276 C79.6927273,59.2827586 82.8727273,56.0965517 86.7272727,56.0965517 L86.7272727,56.0965517 Z M86.7272727,52.2344828 C80.6563636,52.2344828 75.8381818,57.1586207 75.8381818,63.1448276 C75.8381818,69.1310345 80.6563636,74.1517241 86.7272727,74.1517241 C92.7981818,74.1517241 97.6163636,69.2275862 97.6163636,63.2413793 C97.6163636,57.2551724 92.7981818,52.2344828 86.7272727,52.2344828 L86.7272727,52.2344828 L86.7272727,52.2344828 Z" id="Shape" fill="#009CDF"></path>
                        <path d="M15.0327273,75.3103448 L8.86545455,98.0965517 C9.54,98.1931034 10.1181818,98.2896552 10.6963636,98.5793103 L16.8636364,75.7931034 C16.1890909,75.6965517 15.6109091,75.5034483 15.0327273,75.3103448 L15.0327273,75.3103448 Z" id="Shape" fill="#009CDF"></path>
                        <path d="M19.2727273,56.0965517 C23.1272727,56.0965517 26.3072727,59.2827586 26.3072727,63.1448276 C26.3072727,67.0068966 23.1272727,70.2896552 19.2727273,70.2896552 C15.4181818,70.2896552 12.2381818,67.1034483 12.2381818,63.2413793 C12.2381818,59.3793103 15.4181818,56.0965517 19.2727273,56.0965517 L19.2727273,56.0965517 Z M19.2727273,52.2344828 C13.2018182,52.2344828 8.38363636,57.1586207 8.38363636,63.1448276 C8.38363636,69.1310345 13.2018182,74.1517241 19.2727273,74.1517241 C25.3436364,74.1517241 30.1618182,69.2275862 30.1618182,63.2413793 C30.1618182,57.2551724 25.3436364,52.2344828 19.2727273,52.2344828 L19.2727273,52.2344828 L19.2727273,52.2344828 Z" id="Shape" fill="#009CDF"></path>
                        <path d="M42.7854545,101.765517 L76.5127273,73.0896552 C76.1272727,72.6068966 75.7418182,72.1241379 75.4527273,71.4482759 L41.8218182,100.027586 C42.2072727,100.606897 42.4963636,101.186207 42.7854545,101.765517 L42.7854545,101.765517 Z" id="Shape" fill="#009CDF"></path>
                        <path d="M71.4054545,98.2896552 L82.0054545,75.6965517 C81.3309091,75.6 80.6563636,75.4068966 80.0781818,75.2137931 L69.6709091,97.4206897 C70.2490909,97.7103448 70.8272727,98 71.4054545,98.2896552 L71.4054545,98.2896552 Z" id="Shape" fill="#009CDF"></path>
                        <path d="M97.1345455,98.0965517 L90.9672727,75.3103448 C90.3890909,75.5034483 89.7145455,75.6965517 89.1363636,75.7931034 L95.4,98.8689655 C95.9781818,98.4827586 96.5563636,98.2896552 97.1345455,98.0965517 L97.1345455,98.0965517 Z" id="Shape" fill="#009CDF"></path>
                        <path d="M67.7436364,23.8482759 C65.72,23.2689655 58.4927273,21.4344828 58.4927273,21.4344828 L58.4927273,21.4344828 L53,26.6482759 L47.5072727,21.5310345 C47.5072727,21.5310345 40.28,23.3655172 38.2563636,23.8482759 C36.2327273,24.4275862 35.7509091,29.1586207 35.7509091,32.4413793 C35.7509091,32.4413793 40.28,35.1448276 53.0963636,35.1448276 C65.9127273,35.1448276 70.3454545,32.4413793 70.3454545,32.4413793 C70.3454545,29.1586207 69.8636364,24.4275862 67.7436364,23.8482759 L67.7436364,23.8482759 Z M53,33.2137931 C44.1345455,33.2137931 39.5090909,31.9586207 37.6781818,31.1862069 C37.7745455,27.7103448 38.4490909,25.9724138 38.8345455,25.6827586 C40.4727273,25.2965517 45.0018182,24.137931 47.0254545,23.6551724 L53.0963636,29.2551724 L59.1672727,23.5586207 C61.1909091,24.0413793 65.72,25.2 67.3581818,25.6827586 C67.7436364,25.9724138 68.3218182,27.7103448 68.5145455,31.1862069 C66.4909091,31.862069 61.7690909,33.2137931 53,33.2137931 L53,33.2137931 Z" id="Shape" fill="#ACDCF1"></path>
                        <path d="M53,37.0758621 L52.0363636,37.0758621 L52.0363636,54.6482759 C53,54.6482759 53.9636364,54.7448276 53.9636364,54.8413793 L53.9636364,37.0758621 L53,37.0758621 L53,37.0758621 Z" id="Shape" fill="#ACDCF1"></path>
                        <path d="M59.9381818,5.79310345 C58.9745455,1.35172414 54.7345455,0.579310345 52.6145455,0.579310345 C50.1090909,0.579310345 45.9654545,1.15862069 45.2909091,6.46896552 C44.8090909,10.6206897 46.64,15.8344828 48.0854545,17.6689655 C49.6272727,19.6 51.0727273,20.662069 53,20.662069 C54.7345455,20.662069 55.9872727,19.7931034 57.6254545,17.3793103 C59.0709091,15.2551724 60.7090909,9.65517241 59.9381818,5.79310345 L59.9381818,5.79310345 Z M55.9872727,16.3172414 C54.4454545,18.537931 53.6745455,18.7310345 52.9036364,18.7310345 C51.8436364,18.7310345 50.9763636,18.3448276 49.5309091,16.5103448 C48.4709091,15.1586207 46.7363636,10.3310345 47.2181818,6.75862069 C47.6036364,3.76551724 49.2418182,2.51034483 52.6145455,2.51034483 C53.9636364,2.51034483 57.3363636,2.89655172 58.0109091,6.17931034 C58.6854545,9.36551724 57.3363636,14.4827586 55.9872727,16.3172414 L55.9872727,16.3172414 Z" id="Shape" fill="#ACDCF1"></path>
                    </g>
                </g>
                <path d="M53,56.2290749 C57.2477876,56.2290749 60.7522124,59.7180617 60.7522124,63.9471366 C60.7522124,68.1762115 57.2477876,71.7709251 53,71.7709251 C48.7522124,71.7709251 45.2477876,68.2819383 45.2477876,64.0528634 C45.2477876,59.8237885 48.7522124,56.2290749 53,56.2290749 L53,56.2290749 Z M53,52 C46.3097345,52 41,57.3920705 41,63.9471366 C41,70.5022026 46.3097345,76 53,76 C59.6902655,76 65,70.6079295 65,64.0528634 C65,57.4977974 59.6902655,52 53,52 L53,52 L53,52 Z" id="Shape" fill="#009CDF"></path>
            </g>
        </g>
    </g>
</svg>