<?xml version="1.0" encoding="UTF-8" standalone="no"?>
<svg width="113px" height="98px" viewBox="0 0 113 98" version="1.1" xmlns="http://www.w3.org/2000/svg" xmlns:xlink="http://www.w3.org/1999/xlink">
    <!-- Generator: Sketch 3.6.1 (26313) - http://www.bohemiancoding.com/sketch -->
    <title>icon-engagement</title>
    <desc>Created with Sketch.</desc>
    <defs></defs>
    <g id="Page-1" stroke="none" stroke-width="1" fill="none" fill-rule="evenodd">
        <g id="home" transform="translate(-1047.000000, -1721.000000)">
            <g id="Group" transform="translate(1047.000000, 1721.000000)">
                <g id="icon-engagement">
                    <g id="Layer_1">
                        <path d="M50.2703454,76.4594059 C46.989747,75.5861386 35.7006292,72.6752475 35.7006292,72.6752475 L35.7006292,72.7722772 L27.2096687,80.8257426 L18.6222201,72.7722772 C18.6222201,72.7722772 7.33310221,75.5861386 4.14899204,76.4594059 C0.868393683,77.3326733 0.192976374,84.7069307 0.192976374,89.9465347 C0.192976374,89.9465347 7.23661402,94.1188119 27.2096687,94.1188119 C47.1827234,94.1188119 54.1298729,89.9465347 54.1298729,89.9465347 C54.2263611,84.7069307 53.4544556,77.3326733 50.2703454,76.4594059 L50.2703454,76.4594059 Z M27.2096687,90.2376238 C14.473228,90.2376238 7.23661402,88.4910891 4.14899204,87.4237624 C4.34196841,82.960396 5.11387391,80.8257426 5.49982666,80.1465347 C8.1050077,79.4673267 14.2802517,77.9148515 17.56085,77.1386139 L27.2096687,86.1623762 L36.9549756,77.0415842 C40.235574,77.9148515 46.3143297,79.4673267 48.9195108,80.1465347 C49.3054635,80.8257426 50.077369,82.960396 50.2703454,87.4237624 C47.1827234,88.4910891 40.0425976,90.2376238 27.2096687,90.2376238 L27.2096687,90.2376238 Z" id="Shape" fill="#009CDF"></path>
                        <path d="M37.4374165,48.2237624 C35.8936055,41.2376238 29.2359206,40.0732673 26.0518105,40.0732673 C22.0957948,40.0732673 15.7275745,40.9465347 14.6662044,49.2910891 C13.8942989,55.7920792 16.7889445,64.039604 19.0081728,66.8534653 C21.4203775,69.9584158 23.6396058,71.5108911 26.6307396,71.5108911 C29.428897,71.5108911 31.3586608,70.1524752 33.8673536,66.3683168 C36.1830701,62.9722772 38.691763,54.1425743 37.4374165,48.2237624 L37.4374165,48.2237624 Z M30.6832435,64.2336634 C28.367527,67.629703 27.4026451,67.629703 26.6307396,67.629703 C25.4728814,67.629703 24.3150231,67.4356436 21.9993066,64.4277228 C20.4554956,62.390099 17.8503146,55.1128713 18.5257319,49.7762376 C19.104661,45.6039604 21.2274011,43.9544554 26.1482987,43.9544554 C28.5605033,43.9544554 32.8059836,44.6336634 33.7708654,49 C34.6392591,53.6574257 32.516519,61.419802 30.6832435,64.2336634 L30.6832435,64.2336634 Z" id="Shape" fill="#009CDF"></path>
                        <path d="M109.031651,36.8712871 C105.751053,35.9980198 94.5584232,33.0871287 94.5584232,33.0871287 L94.5584232,33.1841584 L85.9709746,41.2376238 L77.3835259,33.1841584 C77.3835259,33.1841584 66.0944081,35.9980198 62.9102979,36.8712871 C59.6296995,37.7445545 58.9542822,45.1188119 58.9542822,50.3584158 C58.9542822,50.3584158 65.9979199,54.5306931 85.9709746,54.5306931 C105.944029,54.5306931 112.987667,50.3584158 112.987667,50.3584158 C112.891179,45.1188119 112.215761,37.7445545 109.031651,36.8712871 L109.031651,36.8712871 Z M85.8744864,50.649505 C73.1380457,50.649505 65.9014317,48.9029703 62.8138097,47.8356436 C63.0067861,43.3722772 63.7786916,41.2376238 64.1646443,40.5584158 C66.7698254,39.8792079 72.9450693,38.3267327 76.2256677,37.550495 L85.8744864,46.5742574 L95.6197933,37.4534653 C98.9003916,38.3267327 104.979147,39.8792079 107.584328,40.5584158 C107.970281,41.2376238 108.742187,43.3722772 108.935163,47.8356436 C105.847541,48.8059406 98.7074153,50.649505 85.8744864,50.649505 L85.8744864,50.649505 Z" id="Shape" fill="#009CDF"></path>
                        <path d="M96.1987224,8.63564356 C94.6549114,1.64950495 87.9972265,0.485148515 84.8131163,0.485148515 C80.8571007,0.485148515 74.4888803,1.35841584 73.4275103,9.7029703 C72.6556048,16.2039604 75.5502504,24.4514851 77.7694787,27.2653465 C80.1816834,30.370297 82.4009117,31.9227723 85.3920455,31.9227723 C88.1902029,31.9227723 90.1199666,30.5643564 92.6286595,26.780198 C94.8478878,23.3841584 97.4530688,14.5544554 96.1987224,8.63564356 L96.1987224,8.63564356 Z M89.3480611,24.6455446 C87.0323446,28.0415842 86.0674628,28.0415842 85.2955573,28.0415842 C84.137699,28.0415842 82.9798408,27.8475248 80.6641243,24.839604 C79.1203133,22.8019802 76.5151323,15.5247525 77.1905496,10.1881188 C77.7694787,6.01584158 79.8922188,4.36633663 84.8131163,4.36633663 C87.225321,4.36633663 91.4708012,5.04554455 92.4356831,9.41188119 C93.400565,14.0693069 91.1813367,21.8316832 89.3480611,24.6455446 L89.3480611,24.6455446 Z" id="Shape" fill="#009CDF"></path>
                        <path d="M100.251226,55.7920792 C99.5758089,55.8891089 98.9968798,55.8891089 98.3214625,55.9861386 C96.1022342,73.3544554 83.1728172,87.3267327 66.576849,91.1108911 L68.8925655,86.550495 C69.18203,86.0653465 68.9890537,85.4831683 68.5066127,85.2891089 C68.0241718,85.0950495 67.4452427,85.1920792 67.2522663,85.6772277 L63.7786916,92.4693069 C63.5857152,92.8574257 63.6822034,93.3425743 63.971668,93.6336634 C63.971668,93.6336634 64.0681561,93.7306931 64.1646443,93.7306931 L71.1117938,97.3207921 C71.3047702,97.4178218 71.5942347,97.4178218 71.8836993,97.4178218 C72.0766757,97.3207921 72.3661402,97.2237624 72.4626284,96.9326733 C72.752093,96.4475248 72.5591166,95.8653465 72.0766757,95.6712871 L67.0592899,93.0514851 C84.5236518,89.0732673 98.1284861,74.2277228 100.251226,55.7920792 L100.251226,55.7920792 Z" id="Shape" fill="#ACDCF1"></path>
                        <path d="M57.1210067,5.72475248 L51.7176682,0.291089109 C51.3317155,-0.097029703 50.7527863,-0.097029703 50.3668336,0.291089109 C49.9808808,0.679207921 49.9808808,1.26138614 50.3668336,1.64950495 L54.1298729,5.43366337 C34.1568182,6.5980198 17.7538264,21.3465347 14.0872753,40.7524752 L16.017039,40.7524752 C19.6835901,22.3168317 35.1217001,8.53861386 54.0333847,7.47128713 L50.2703454,11.2554455 C49.8843927,11.6435644 49.8843927,12.2257426 50.2703454,12.6138614 C50.4633218,12.8079208 50.7527863,12.9049505 50.9457627,12.9049505 C51.1387391,12.9049505 51.4282036,12.8079208 51.62118,12.6138614 L57.1210067,7.08316832 C57.2174949,6.98613861 57.2174949,6.98613861 57.2174949,6.88910891 C57.5069594,6.5009901 57.4104712,6.11287129 57.1210067,5.72475248 L57.1210067,5.72475248 Z" id="Shape" fill="#ACDCF1"></path>
                    </g>
                </g>
            </g>
        </g>
    </g>
</svg>