<?xml version="1.0" encoding="UTF-8" standalone="no"?>
<svg width="116px" height="94px" viewBox="0 0 116 94" version="1.1" xmlns="http://www.w3.org/2000/svg" xmlns:xlink="http://www.w3.org/1999/xlink">
    <!-- Generator: Sketch 3.6.1 (26313) - http://www.bohemiancoding.com/sketch -->
    <title>icon-transparency</title>
    <desc>Created with Sketch.</desc>
    <defs></defs>
    <g id="Page-1" stroke="none" stroke-width="1" fill="none" fill-rule="evenodd">
        <g id="home" transform="translate(-278.000000, -1727.000000)">
            <g id="icon-transparency" transform="translate(278.000000, 1727.000000)">
                <g id="Layer_1">
                    <path d="M58.928,44.3940594 L57.2576,44.3940594 C56.3296,44.3940594 55.5872,45.1386139 55.5872,46.0693069 L55.5872,47.1861386 C55.5872,47.8376238 55.9584,48.3960396 56.5152,48.6752475 L55.7728,57.7960396 L60.32,57.7960396 L59.5776,48.6752475 C60.1344,48.3960396 60.5056,47.8376238 60.5056,47.1861386 L60.5056,46.0693069 C60.5984,45.1386139 59.856,44.3940594 58.928,44.3940594 L58.928,44.3940594 L58.928,44.3940594 Z" id="Shape" fill="#009CDF"></path>
                    <path d="M58.3712,12.750495 L58.3712,12.750495 C61.0624,12.750495 65.7952,13.4950495 66.816,18.4277228 C67.8368,23.4534653 65.5168,31.7366337 63.568,34.7148515 C60.9696,38.5306931 59.856,38.5306931 58.928,38.5306931 C57.3504,38.5306931 56.0512,37.9722772 53.7312,35.0871287 C52.0608,32.8534653 49.184,25.0356436 49.9264,19.3584158 C50.576,14.7049505 52.9888,12.750495 58.3712,12.750495 L58.3712,12.750495 Z M58.3712,9.02772277 C54.1952,9.02772277 47.4208,9.95841584 46.3072,18.8 C45.472,25.6871287 48.5344,34.4356436 50.8544,37.3207921 C53.4528,40.5782178 55.68,42.2534653 58.928,42.2534653 C61.8976,42.2534653 63.8464,40.8574257 66.6304,36.8554455 C69.136,33.2257426 71.8272,23.9188119 70.4352,17.6831683 C68.8576,10.2376238 61.8048,9.02772277 58.3712,9.02772277 L58.3712,9.02772277 L58.3712,9.02772277 Z" id="Shape" fill="#009CDF"></path>
                    <path d="M59.0208,76.5029703 L58.0928,77.1544554 L57.2576,76.5960396 C54.6592,76.5960396 52.0608,76.3168317 49.5552,75.7584158 L58.0928,81.7148515 L67.1872,75.3861386 C64.496,76.0376238 61.8048,76.409901 59.0208,76.5029703 L59.0208,76.5029703 Z" id="Shape" fill="#ACDCF1"></path>
                    <path d="M82.4992,47.4653465 C79.0656,46.5346535 67.1872,43.5564356 67.1872,43.5564356 C67.1872,43.5564356 64.032,59.6574257 60.32,59.6574257 L55.7728,59.6574257 C52.432,59.6574257 49.8336,45.2316832 48.9984,43.5564356 C48.9984,43.5564356 37.0272,46.5346535 33.6864,47.4653465 C31.9232,47.9306931 30.9024,50.2574257 30.2528,53.1425743 C31.1808,54.7247525 32.2016,56.3069307 33.408,57.7029703 C33.7792,53.5148515 34.5216,51.560396 34.8928,51.0019802 C37.3056,50.350495 42.7808,48.9544554 46.4928,48.0237624 C48.9056,57.0514851 50.9472,63.380198 55.8656,63.380198 L60.32,63.380198 C64.7744,63.380198 67.0016,57.9821782 68.672,52.6772277 C69.136,51.0950495 69.6,49.419802 69.9712,48.0237624 C73.5904,48.9544554 78.9728,50.350495 81.2928,50.9089109 C81.664,51.3742574 82.3136,53.049505 82.6848,56.4 C83.7984,54.9108911 84.7264,53.4217822 85.5616,51.7465347 C85.0048,49.6059406 83.984,47.8376238 82.4992,47.4653465 L82.4992,47.4653465 Z" id="Shape" fill="#009CDF"></path>
                    <path d="M88.5312,13.8673267 L88.5312,13.8673267 C88.9952,14.5188119 89.3664,15.0772277 89.8304,15.6356436 L90.1088,15.6356436 C92.336,15.6356436 96.1408,16.1940594 96.976,20.1960396 C97.6256,22.9881188 96.8832,27.1762376 95.8624,30.3405941 C95.9552,30.619802 95.9552,30.8990099 96.048,31.2712871 L96.048,31.2712871 L96.2336,32.6673267 L96.2336,33.039604 L96.2336,33.2257426 C96.3264,33.6910891 96.3264,34.249505 96.4192,34.7148515 C96.4192,35.0871287 96.512,35.4594059 96.512,35.8316832 L96.512,36.8554455 L96.512,37.1346535 L96.512,37.1346535 C96.6976,36.8554455 96.976,36.4831683 97.2544,36.2039604 C99.3888,33.039604 101.8016,24.9425743 100.5952,19.5445545 C99.2032,13.1227723 93.0784,12.0990099 90.1088,12.0990099 C89.2736,12.0990099 88.2528,12.1920792 87.1392,12.3782178 C87.5104,12.6574257 88.0672,13.2158416 88.5312,13.8673267 L88.5312,13.8673267 Z" id="Shape" fill="#ACDCF1"></path>
                    <path d="M19.488,29.8752475 C18.56,27.0831683 17.9104,23.639604 18.2816,20.8475248 C18.7456,17.1247525 20.6944,15.6356436 25.056,15.6356436 L25.4272,15.6356436 C26.2624,14.4257426 27.0976,13.3089109 28.0256,12.1920792 C26.912,11.9128713 25.7984,11.819802 25.056,11.819802 C21.4368,11.819802 15.4976,12.6574257 14.5696,20.2891089 C13.8272,26.2455446 16.5184,33.7841584 18.56,36.390099 C18.6528,36.4831683 18.7456,36.5762376 18.7456,36.6693069 C18.7456,34.3425743 19.024,32.1089109 19.488,29.8752475 L19.488,29.8752475 Z" id="Shape" fill="#ACDCF1"></path>
                    <path d="M92.5216,55.8415842 L91.9648,55.8415842 C91.5008,56.7722772 90.944,57.609901 90.48,58.4475248 L93.4496,61.4257426 C109.6896,61.0534653 115.536,57.609901 115.536,57.609901 C115.536,52.8633663 114.8864,46.0693069 111.9168,45.2316832 C108.9472,44.3940594 98.5536,41.7881188 98.5536,41.7881188 C98.5536,41.7881188 95.7696,55.8415842 92.5216,55.8415842 L92.5216,55.8415842 Z M100.224,49.8851485 C100.5952,48.6752475 100.9664,47.3722772 101.2448,46.3485149 C104.3072,47.0930693 108.3904,48.209901 110.432,48.6752475 C110.8032,49.3267327 111.4528,51.1881188 111.6384,55.0970297 C109.2256,55.9346535 104.4928,57.0514851 96.6048,57.5168317 C98.2752,55.7485149 99.3888,52.770297 100.224,49.8851485 L100.224,49.8851485 Z" id="Shape" fill="#ACDCF1"></path>
                    <path d="M23.2,55.7485149 C20.5088,54.6316832 18.3744,43.1841584 17.7248,41.8811881 C17.7248,41.8811881 7.3312,44.4871287 4.3616,45.2316832 C1.392,46.0693069 0.7424,52.770297 0.7424,57.609901 C0.7424,57.609901 7.2384,61.4257426 25.6128,61.4257426 L26.912,61.4257426 C25.52,59.6574257 24.2208,57.7960396 23.2,55.7485149 L23.2,55.7485149 Z M4.5472,55.190099 C4.7328,51.2811881 5.3824,49.419802 5.7536,48.7683168 C7.7952,48.209901 12.064,47.1861386 15.1264,46.3485149 C16.24,50.7227723 17.5392,55.0970297 19.5808,57.609901 C11.6928,57.1445545 6.96,55.9346535 4.5472,55.190099 L4.5472,55.190099 Z" id="Shape" fill="#ACDCF1"></path>
                    <path d="M111.7312,82.4594059 L88.0672,58.7267327 C92.2432,52.6772277 94.656,45.4178218 94.656,37.5069307 L94.656,36.6693069 L94.656,35.7386139 C94.656,35.3663366 94.656,34.9940594 94.5632,34.7148515 C94.5632,34.249505 94.4704,33.7841584 94.3776,33.3188119 C94.3776,33.1326733 94.3776,32.9465347 94.2848,32.8534653 L94.2848,32.8534653 C93.5424,27.3623762 91.5936,21.8712871 88.4384,17.1247525 L88.4384,17.1247525 C87.9744,16.4732673 87.6032,15.8217822 87.0464,15.2633663 C87.0464,15.2633663 87.0464,15.2633663 86.9536,15.170297 C85.9328,13.8673267 84.912,12.6574257 83.7056,11.4475248 C83.2416,10.9821782 82.7776,10.609901 82.3136,10.1445545 C82.2208,10.0514851 82.128,9.95841584 82.0352,9.86534653 C81.664,9.58613861 81.3856,9.30693069 81.0144,9.02772277 C80.736,8.74851485 80.3648,8.46930693 80.0864,8.28316832 C80.0864,8.28316832 80.0864,8.28316832 79.9936,8.28316832 L79.9936,8.28316832 C73.776,3.44356436 65.888,0.558415842 57.4432,0.558415842 C37.0272,0.558415842 20.416,17.2178218 20.416,37.6930693 C20.416,58.1683168 37.0272,74.8277228 57.4432,74.8277228 C65.3312,74.8277228 72.6624,72.3148515 78.6944,68.1267327 L102.3584,91.8594059 C103.6576,93.1623762 105.328,93.8138614 106.9984,93.8138614 C108.6688,93.8138614 110.3392,93.1623762 111.6384,91.8594059 C114.2368,89.160396 114.2368,85.0653465 111.7312,82.4594059 L111.7312,82.4594059 Z M24.2208,37.5069307 C24.2208,19.0792079 39.1616,4.0950495 57.536,4.0950495 C65.2384,4.0950495 72.384,6.79405941 78.0448,11.1683168 L78.0448,11.1683168 C78.1376,11.2613861 78.1376,11.2613861 78.2304,11.3544554 C81.3856,13.8673267 84.1696,17.0316832 86.2112,20.5683168 L86.2112,20.5683168 C87.6032,22.8950495 88.624,25.3148515 89.3664,27.8277228 L89.3664,27.8277228 C90.5728,31.829703 91.0368,35.9247525 90.6656,40.019802 L90.6656,40.019802 C89.552,57.3306931 75.168,71.0118812 57.6288,71.0118812 C39.2544,71.0118812 24.2208,55.9346535 24.2208,37.5069307 L24.2208,37.5069307 Z M109.1328,89.0673267 C108.576,89.6257426 107.9264,89.9049505 107.184,89.9049505 C106.4416,89.9049505 105.6992,89.6257426 105.2352,89.0673267 L81.8496,65.6138614 C83.2416,64.4039604 84.5408,63.1009901 85.7472,61.6118812 L109.1328,85.0653465 C110.1536,86.1821782 110.1536,87.950495 109.1328,89.0673267 L109.1328,89.0673267 Z" id="Shape" fill="#009CDF"></path>
                </g>
            </g>
        </g>
    </g>
</svg>