<?xml version="1.0" encoding="UTF-8" standalone="no"?>
<svg width="45px" height="45px" viewBox="0 0 45 45" version="1.1" xmlns="http://www.w3.org/2000/svg" xmlns:xlink="http://www.w3.org/1999/xlink">
    <!-- Generator: Sketch 3.6.1 (26313) - http://www.bohemiancoding.com/sketch -->
    <title>icon-available</title>
    <desc>Created with Sketch.</desc>
    <defs></defs>
    <g id="Page-1" stroke="none" stroke-width="1" fill="none" fill-rule="evenodd">
        <g id="pricing_v4" transform="translate(-150.000000, -706.000000)" stroke="#91DA53" fill="#91DA53">
            <g id="1458577644_-53" transform="translate(151.000000, 707.000000)">
                <g id="Слой_1">
                    <g id="icon-available">
                        <path d="M21.5,42.9057018 C9.68405263,42.9057018 0.0942982456,33.3159474 0.0942982456,21.5 C0.0942982456,9.68405263 9.68405263,0.0942982456 21.5,0.0942982456 C33.3159474,0.0942982456 42.9057018,9.68405263 42.9057018,21.5 C42.9057018,33.3159474 33.3159474,42.9057018 21.5,42.9057018 L21.5,42.9057018 Z M21.5,1.80675439 C10.6430281,1.80675439 1.80675439,10.6430281 1.80675439,21.5 C1.80675439,32.3569719 10.6430281,41.1932456 21.5,41.1932456 C32.3569719,41.1932456 41.1932456,32.3569719 41.1932456,21.5 C41.1932456,10.6430281 32.3569719,1.80675439 21.5,1.80675439 L21.5,1.80675439 Z" id="Shape"></path>
                        <path d="M20.745614,28.8552632 C20.5192982,28.8552632 20.2929825,28.7798246 20.104386,28.5912281 L14.0692982,22.9333333 C13.6921053,22.5938596 13.654386,21.9903509 14.0315789,21.6131579 C14.3710526,21.2359649 14.9745614,21.1982456 15.3517544,21.5754386 L20.6701754,26.554386 L30.2131579,15.2385965 C30.5526316,14.8236842 31.1561404,14.7859649 31.5333333,15.1254386 C31.9482456,15.4649123 31.9859649,16.0684211 31.6464912,16.445614 L21.4622807,28.5157895 C21.3114035,28.704386 21.0473684,28.8175439 20.7833333,28.8552632 C20.7833333,28.8552632 20.745614,28.8552632 20.745614,28.8552632 L20.745614,28.8552632 Z" id="Shape"></path>
                    </g>
                </g>
            </g>
        </g>
    </g>
</svg>