<?xml version="1.0" encoding="UTF-8" standalone="no"?>
<svg width="37px" height="37px" viewBox="0 0 37 37" version="1.1" xmlns="http://www.w3.org/2000/svg" xmlns:xlink="http://www.w3.org/1999/xlink">
    <!-- Generator: Sketch 3.6.1 (26313) - http://www.bohemiancoding.com/sketch -->
    <title>linkedin-logo</title>
    <desc>Created with Sketch.</desc>
    <defs></defs>
    <g id="Page-1" stroke="none" stroke-width="1" fill="none" fill-rule="evenodd">
        <g id="home" transform="translate(-1057.000000, -4061.000000)">
            <g id="linkedin-logo" transform="translate(1057.000000, 4061.000000)">
                <rect id="Rectangle-5" stroke="#FFFFFF" opacity="0.3" x="0" y="0" width="37" height="37" rx="100"></rect>
                <g id="linkedin" transform="translate(12.000000, 11.000000)" fill="#6F6F6F">
                    <path d="M2.72700847,12.9999998 L2.72700847,4.40258272 L0.0816136626,4.40258272 L0.0816136626,12.9999998 L2.72700847,12.9999998 L2.72700847,12.9999998 Z M2.72700847,1.35517637 C2.71125165,0.585796397 2.20077397,0 1.37149056,0 C0.541991316,0 0,0.585796397 0,1.35517637 C0,2.10784583 0.526234498,2.71058483 1.33976109,2.71058483 L1.3555179,2.71058483 C2.20077397,2.71058483 2.72700847,2.10784583 2.72700847,1.35517637 L2.72700847,1.35517637 Z M7.04282185,13 L7.04282185,8.1016073 C7.04282185,7.83945292 7.06168511,7.57729859 7.13843025,7.3904163 C7.34825191,6.86636718 7.82577709,6.3238894 8.6275956,6.3238894 C9.67799591,6.3238894 10.3367514,6.92269138 10.3367514,8.1016072 L10.3367514,13 L13,13 L13,7.97053013 C13,5.27631028 11.5681997,4.02264151 9.65835746,4.02264151 C8.09244697,4.02264151 7.40510013,4.90202656 7.02344178,5.50056906 L7.04256342,4.35070042 L4.38392134,4.35070042 C4.4221647,5.1737612 4.38392134,13 4.38392134,13 L7.04282185,13 L7.04282185,13 Z" id="Shape"></path>
                </g>
            </g>
        </g>
    </g>
</svg>