<?xml version="1.0" encoding="UTF-8" standalone="no"?>
<svg width="87px" height="27px" viewBox="0 0 87 27" version="1.1" xmlns="http://www.w3.org/2000/svg" xmlns:xlink="http://www.w3.org/1999/xlink">
    <!-- Generator: Sketch 3.6.1 (26313) - http://www.bohemiancoding.com/sketch -->
    <title>Perdoo (B)</title>
    <desc>Created with Sketch.</desc>
    <defs></defs>
    <g id="Page-1" stroke="none" stroke-width="1" fill="none" fill-rule="evenodd">
        <path d="M19.9176097,12.0789474 L26.1707317,10.5059208 C25.8197813,9.4112424 25.3295495,8.65578323 24.7063378,8.24347623 C24.0365913,7.7979028 23.2076891,7.70220038 22.2291643,7.94833914 C21.3290056,8.17481302 20.6615212,8.64693403 20.232528,9.36896291 C19.7985257,10.0921389 19.697377,10.9963957 19.9176097,12.0789474 L19.9176097,12.0789474 Z M4.22368432,24.9162116 C4.22368432,25.4884787 4.01730659,25.9764315 3.60439251,26.3858904 C3.18624364,26.7953492 2.69417315,27 2.11184216,27 L0,27 L0,11.700428 C0,8.82949702 0.846925958,6.87705631 2.54061924,5.8325666 C4.23431253,4.78807689 6.07632493,4.26315789 8.0611044,4.26315789 C9.09315166,4.26315789 10.1358271,4.45742669 11.1891308,4.84580697 C12.2422759,5.23953555 13.083967,5.80110607 13.7031002,6.54105782 C14.9416838,8.13657877 15.5609756,10.1889067 15.5609756,12.6871876 C15.5609756,15.2746592 14.9416838,17.3636386 13.7031002,18.9645079 C12.4646752,20.52322 10.8715534,21.3001379 8.93436295,21.3001379 C7.89692228,21.3001379 6.99177908,21.116251 6.20862241,20.7489493 C5.37755946,20.3394905 4.72114822,19.7044596 4.22368432,18.8436994 L4.22368432,24.9162116 L4.22368432,24.9162116 Z M31.8292683,21.3157895 L31.8292683,13.3909649 C31.8292683,11.7933472 32.0642979,10.4523969 32.5345137,9.36827115 C33.0047294,8.27865095 33.647342,7.40927814 34.4675186,6.75450132 C35.2460443,6.14163902 36.1551595,5.69109731 37.194864,5.40319017 C38.2345686,5.11496907 39.3054329,4.97368421 40.4079269,4.97368421 L40.7160803,4.97368421 L41.0243902,4.97368421 L41.0243902,9.34205496 L39.6137429,9.34205496 C38.4277908,9.34205496 37.5501486,9.63011908 36.9806598,10.2010669 C36.4111711,10.7771951 36.1238431,11.6729411 36.1238431,12.9038462 L36.1238431,21.3157895 L31.8292683,21.3157895 L31.8292683,21.3157895 Z M52.3530094,0 L54.4691876,0 C55.0527143,0 55.545954,0.212793639 55.9649615,0.638692247 C56.3785644,1.06474652 56.5853659,1.54263714 56.5853659,2.0723641 L56.5853659,13.9455331 C56.5853659,16.828132 55.7368599,18.7758086 54.0342846,19.7938557 C52.3318683,20.8067659 50.4862328,21.3157895 48.4919736,21.3157895 C47.4153661,21.3157895 46.3544953,21.144247 45.320329,20.7963364 C44.2809172,20.4535627 43.4533934,19.8976841 42.8275846,19.1238749 C41.6236535,17.6228002 41.0243902,15.5764321 41.0243902,12.979478 C41.0243902,10.4189494 41.6236535,8.37258134 42.8275846,6.8299442 C44.0739568,5.24574459 45.6703496,4.45621325 47.6221676,4.45621325 C48.6617384,4.45621325 49.5739856,4.65888868 50.3587502,5.06392822 C51.1915195,5.55224837 51.8545241,6.18066675 52.3530094,6.94933902 L52.3530094,0 L52.3530094,0 Z M58.9498505,19.5389745 C58.1013712,18.7985831 57.4960235,17.8062539 57.1286903,16.5512865 C56.766474,15.3016694 56.5853659,13.9994931 56.5853659,12.644915 C56.5853659,11.5370817 56.7354623,10.429091 57.0407722,9.32141501 C57.3408101,8.21358167 57.8168392,7.29458356 58.4634325,6.55434946 C59.5136426,5.32566157 60.8693176,4.59581341 62.5248755,4.36999795 C64.1855503,4.14433985 65.6807779,4.27558033 67.0155201,4.76906973 C68.5470313,5.38341368 69.6800426,6.45458151 70.409437,7.97202994 C71.0975859,9.32141501 71.4390244,10.9018085 71.4390244,12.7078601 C71.4390244,14.0205797 71.2993168,15.1494996 71.0147848,16.0892696 C70.7302527,17.0343899 70.3681915,17.8377265 69.9231741,18.4940863 C68.95561,19.8434713 67.7191748,20.6836307 66.2239473,21.0142498 C64.8892051,21.381849 63.5491909,21.4133215 62.1936709,21.1088247 C60.838306,20.7989776 59.7569291,20.2738583 58.9498505,19.5389745 L58.9498505,19.5389745 Z M73.8033786,19.5389745 C72.9548905,18.7985831 72.3496915,17.8062539 71.9823545,16.5512865 C71.6201344,15.3016694 71.4390244,13.9994931 71.4390244,12.644915 C71.4390244,11.5370817 71.5891224,10.429091 71.8942804,9.32141501 C72.1943214,8.21358167 72.6703555,7.29458356 73.3171106,6.55434946 C74.3673317,5.32566157 75.7228658,4.59581341 77.378441,4.36999795 C79.0391332,4.14433985 80.5343763,4.27558033 81.8692875,4.76906973 C83.4006597,5.38341368 84.5336828,6.45458151 85.2632399,7.97202994 C85.9512409,9.32141501 86.2926829,10.9018085 86.2926829,12.7078601 C86.2926829,14.0205797 86.153129,15.1494996 85.8685939,16.0892696 C85.5839039,17.0343899 85.2218389,17.8377265 84.7769718,18.4940863 C83.8093977,19.8434713 82.5727945,20.6836307 81.0775514,21.0142498 C79.7427952,21.381849 78.4027671,21.4133215 77.047388,21.1088247 C75.6918539,20.7989776 74.6104657,20.2738583 73.8033786,19.5389745 L73.8033786,19.5389745 Z M76.7984929,8.65250399 C75.9823119,9.59470522 75.6138968,10.9974963 75.6935461,12.8555435 C75.7682732,14.7137475 76.1016366,16.0119019 76.6839412,16.7500066 C76.9178177,17.0797613 77.3260573,17.3519424 77.9082128,17.5769035 C78.4905174,17.8021784 79.0826663,17.823043 79.6849578,17.639811 C80.2871002,17.4565791 80.824658,16.9959892 81.2924109,16.2578845 C81.7552417,15.5251136 82.009105,14.3369298 82.0487805,12.7038438 C82.0487805,11.2277913 81.8248975,10.1233796 81.3769823,9.3904518 C80.9290672,8.65250399 80.4164184,8.18140338 79.8342629,7.97714997 C79.2519583,7.77305343 78.6647315,7.76254269 78.0824269,7.94577463 C77.5001223,8.1341835 77.0720448,8.36981225 76.7984929,8.65250399 L76.7984929,8.65250399 Z M61.944688,8.65250399 C61.1285073,9.59470522 60.7602416,10.9974963 60.8398908,12.8555435 C60.9144687,14.7137475 61.2479812,16.0119019 61.8301363,16.7500066 C62.0641618,17.0797613 62.4722521,17.3519424 63.0545564,17.5769035 C63.6368607,17.8021784 64.2290093,17.823043 64.8313005,17.639811 C65.4334426,17.4565791 65.970851,16.9959892 66.4386036,16.2578845 C66.9014341,15.5251136 67.1554465,14.3369298 67.195122,12.7038438 C67.195122,11.2277913 66.9710899,10.1233796 66.5233241,9.3904518 C66.0754092,8.65250399 65.5627607,8.18140338 64.9804564,7.97714997 C64.3983012,7.77305343 63.8109256,7.76254269 63.2287704,7.94577463 C62.646317,8.1341835 62.2183889,8.36981225 61.944688,8.65250399 L61.944688,8.65250399 Z M44.5609756,12.634815 C44.5609756,14.3034676 44.8729411,15.5722125 45.4913266,16.4517541 C46.1098706,17.3260233 47.0033054,17.7631579 48.1610156,17.7631579 C49.2764228,17.7631579 50.1433983,17.3260233 50.7671708,16.4517541 C51.3434117,15.5722125 51.6341463,14.3034676 51.6341463,12.634815 C51.6341463,11.1315257 51.3223393,9.94282635 50.7037954,9.06855715 C50.0429483,8.2315147 49.1549004,7.81578947 48.0341063,7.81578947 C46.9610023,7.81578947 46.1098706,8.2527643 45.4913266,9.12703349 C44.8729411,9.96407595 44.5609756,11.1315257 44.5609756,12.634815 L44.5609756,12.634815 Z M11.3170732,12.8854149 C11.3170732,11.2541749 11.009115,10.0068595 10.3879466,9.1271722 C9.76661912,8.25291705 8.87441574,7.81578947 7.71674762,7.81578947 C6.60157297,7.81578947 5.73085503,8.25291705 5.11477952,9.1271722 C4.53594547,9.92138316 4.24390244,11.1742905 4.24390244,12.8854149 C4.24390244,14.4687242 4.55186062,15.6574044 5.17318813,16.4517752 C5.79451564,17.3260303 6.68671903,17.7631579 7.84422799,17.7631579 C8.91690919,17.7631579 9.76661912,17.3260303 10.3879466,16.4517752 C11.009115,15.5720879 11.3170732,14.3834076 11.3170732,12.8854149 L11.3170732,12.8854149 Z M31.1219512,15.2600072 C30.927965,16.5235145 30.4373871,17.6096792 29.6499011,18.5186581 C28.6394971,19.7376337 27.1921103,20.5787175 25.3131161,21.0409686 C23.0349246,21.6013775 21.0639173,21.3045521 19.4168528,20.1519035 C17.7748474,19.041121 16.6243686,17.1573066 15.9589343,14.4963834 C15.3240129,11.9572951 15.4482779,9.82463658 16.3356818,8.0916653 C17.2535985,6.30804711 18.8513364,5.13344633 21.1296861,4.57288061 C23.5310359,3.98220898 25.5673376,4.23591397 27.2450731,5.33807241 C28.8908729,6.48554652 30.0411936,8.36936094 30.6952448,10.984498 C30.7344531,11.1419268 30.7689185,11.2791282 30.7980085,11.3959454 C30.8285214,11.5177803 30.8476513,11.5939858 30.8577695,11.6345974 C30.9072542,11.8326379 30.9211668,11.9748569 30.900456,12.0661155 L20.5224318,14.6190023 C20.6381595,15.0249616 20.7731752,15.389055 20.927795,15.7112822 L20.9175186,15.7145751 L20.9447115,15.7777661 L20.9448696,15.7782365 L20.9458182,15.7804317 C20.9726948,15.8408004 21.0011524,15.9002282 21.0315073,15.9585584 L21.0345111,15.9645168 L21.0387798,15.9725137 L21.0631268,16.018143 L21.0669212,16.0250422 L21.0722965,16.0349207 L21.0958531,16.0764732 L21.1048647,16.0923101 L21.1331642,16.1401346 L21.1368005,16.1462499 C21.1592504,16.1832551 21.1824908,16.2199466 21.2063636,16.2558542 L21.2099998,16.2614991 L21.2462043,16.3146548 L21.2465205,16.315282 L21.2795629,16.3620089 L21.2855707,16.3703194 L21.2917365,16.3786298 L21.3211427,16.4184575 L21.3260437,16.4248863 L21.3298381,16.429904 L21.3639873,16.4739652 L21.3674654,16.4785125 L21.4079385,16.5285322 L21.4099938,16.5311978 L21.4148948,16.5369995 L21.4528383,16.5820015 L21.4536288,16.5829423 L21.4950505,16.6301396 L21.4982124,16.633746 L21.4988448,16.6345301 L21.4997934,16.6354709 L21.5396341,16.6790617 L21.5437446,16.683609 L21.545958,16.685961 L21.5827948,16.724691 L21.5903835,16.7323743 L21.5941779,16.7362943 L21.6267461,16.7692226 L21.6529903,16.7950949 L21.6779698,16.8192423 L21.6925148,16.8330409 L21.6936215,16.8341385 L21.7192334,16.8578155 L21.721921,16.8603244 L21.7416833,16.8785133 L21.7448452,16.8813358 L21.7707733,16.9043856 L21.7725124,16.9059536 L21.7970176,16.9272786 L21.7971757,16.9274354 L21.823578,16.9500149 L21.8253171,16.9515829 L21.8444469,16.9677335 L21.8501385,16.9724375 L21.8771732,16.9943897 L21.8819162,16.9983098 L21.8982002,17.0114811 L21.904208,17.016342 L21.931717,17.0378238 L21.9424677,17.0462911 L21.9491078,17.0513087 L21.9884742,17.081101 L22.0121889,17.0986628 L22.0150346,17.1007012 L22.0433342,17.1209286 L22.0645193,17.1358248 L22.0717918,17.141156 L22.1004075,17.1607562 L22.1203279,17.1742412 L22.1293395,17.1803564 L22.1584295,17.1994862 L22.1799308,17.2134416 L22.1878357,17.2183024 L22.2172419,17.236805 L22.2414309,17.2517012 L22.2471224,17.254994 L22.2768449,17.273183 L22.277003,17.2733398 L22.2912318,17.2814935 L22.3195313,17.2979576 L22.3372383,17.3079929 L22.3677512,17.3250843 L22.3946278,17.3398237 L22.3982641,17.3417053 C22.4943876,17.3954882 22.5935151,17.4428423 22.6958044,17.4832971 L22.7002312,17.4851787 L22.7038674,17.4867468 L22.7470282,17.5039949 L22.7631542,17.5104238 L22.7727981,17.514187 L22.8192789,17.5317488 L22.8246543,17.5336304 L22.8267095,17.5345712 L22.8342982,17.5373937 L22.8768266,17.5524466 L22.8908973,17.5573075 L22.8939012,17.5582483 L22.950026,17.5770645 L22.9555594,17.5789461 L22.9558756,17.5789461 L22.9599861,17.5802005 L23.0195891,17.5987031 L23.0222767,17.5996439 L23.0866226,17.6179897 L23.0891522,17.6187737 C23.13089,17.630377 23.172786,17.6408827 23.2149981,17.6507612 L23.2194249,17.6518588 L23.224484,17.6529564 L23.2791859,17.665187 L23.2864584,17.666755 L23.2912013,17.6676958 L23.3501719,17.6792991 L23.3539662,17.6800831 L23.361713,17.6814943 L23.4148339,17.6910592 L23.4170473,17.6913728 L23.4219484,17.6923136 L23.4290628,17.6932545 L23.4867685,17.702349 L23.4904048,17.7029762 L23.5006811,17.7043874 L23.5566478,17.7119138 L23.5591774,17.7122275 L23.6244718,17.7195971 L23.6322186,17.7205379 L23.6945092,17.7261828 L23.6978293,17.7264964 L23.7008331,17.72681 C23.7462073,17.7304164 23.7917395,17.7330821 23.8375879,17.7349637 L23.8402755,17.7351205 C23.8843849,17.7368453 23.9286523,17.7374725 23.9730778,17.7374725 L23.9839866,17.7374725 C24.0292026,17.7373157 24.0748929,17.7362181 24.1204251,17.7341797 L24.1207413,17.7340229 L24.1866682,17.7304164 L24.1918854,17.7301028 L24.1986836,17.7294756 L24.2603418,17.7247716 L24.2658752,17.7241444 L24.3325926,17.7175587 L24.3351221,17.7172451 L24.4054757,17.7087778 L24.4083215,17.7084642 L24.4789913,17.6982721 C24.5030222,17.6946657 24.526895,17.6907456 24.5506097,17.686512 L24.5763796,17.6818079 L24.6355083,17.6703614 L24.6465751,17.668323 L24.6552705,17.6664414 C24.6774042,17.6618941 24.6993798,17.6570333 24.7211974,17.6520156 L24.743173,17.6466844 L24.8004044,17.632729 L24.8166885,17.6286522 L24.8843544,17.6103064 L24.8911527,17.6084248 L24.9064882,17.6037207 L24.9566052,17.5888246 L24.9831657,17.5805141 L25.0426105,17.5610707 L25.0495668,17.5587187 L25.0511478,17.5582483 L25.1194461,17.533944 L25.136995,17.5275152 L25.1882187,17.507915 L25.2117753,17.4988205 L25.2732754,17.4735754 L25.2973063,17.4630697 L25.3352498,17.4464487 L25.3660789,17.4323366 L25.3714543,17.4299846 L25.4231523,17.4055235 L25.4280533,17.4031715 L25.4308991,17.4017603 L25.4946126,17.3697728 L25.5067861,17.3633439 L25.5594327,17.33559 L25.5717644,17.3290043 L25.5746101,17.3274363 L25.5798274,17.3244571 L25.6342131,17.2938808 L25.6520781,17.2833751 L25.6982427,17.255778 L25.7184793,17.2433907 L25.7211669,17.2418227 L25.7687544,17.2118735 L25.7725488,17.2095215 L25.7910462,17.197291 L25.8389499,17.1654603 L25.850333,17.157777 C25.8696209,17.1444489 25.8889089,17.1309639 25.9081968,17.1171654 L25.9112007,17.1149702 L25.9154693,17.1118341 L25.964954,17.0754562 L25.9881944,17.0578944 L26.0210788,17.0323357 L26.045742,17.0128923 L26.0919066,16.9752599 L26.1104041,16.9598934 L26.1492962,16.9264946 L26.166687,16.9114417 L26.1703232,16.9083057 L26.2117449,16.8709869 L26.2397282,16.8449578 L26.2634429,16.8225352 L26.2851023,16.8016806 L26.320042,16.7671842 L26.3483415,16.7386463 L26.3804354,16.7050908 L26.3970357,16.687529 L26.4030434,16.6811001 L26.4310268,16.6505238 L26.4574291,16.6210451 L26.4618559,16.6161843 L26.4809857,16.594232 L26.4827248,16.5921936 L26.4869934,16.587176 L26.4999575,16.572123 L26.5037518,16.5675758 L26.518613,16.5498572 L26.5345809,16.5305706 L26.5371105,16.5274346 L26.5677815,16.4894886 L26.5786902,16.47569 L26.5916543,16.4590691 L26.6084127,16.4374304 L26.6095193,16.4360192 L26.6270682,16.4128126 L26.6313369,16.4066973 L26.644459,16.3894492 L26.6490438,16.3830203 L26.6615336,16.3657721 L26.6694385,16.354796 L26.6727585,16.3502488 L26.7015324,16.3091667 L26.7035876,16.3061875 L26.7116506,16.2942706 L26.7247728,16.2752976 L26.7280928,16.2702799 L26.7401083,16.252091 L26.7442188,16.2459757 L26.7598705,16.2215146 L26.7660363,16.2119497 L26.7867472,16.179335 L26.7910158,16.1722789 L26.8061932,16.1475043 L26.8080904,16.1446819 L26.8096714,16.1420162 L26.8212125,16.1225728 L26.8254812,16.1158304 L26.8359156,16.0973278 L26.8506187,16.0722395 L26.8615275,16.0532665 L26.863899,16.0488761 L26.8650056,16.0468377 L26.8790764,16.021279 L26.880025,16.0195542 L26.8928309,15.9957203 L26.9065854,15.9700049 L26.909115,15.9653008 L26.9200237,15.9441326 L26.9201818,15.9441326 L26.933304,15.9181035 L26.938205,15.908225 L26.9461099,15.8919177 L26.9500623,15.8840776 L26.9518014,15.8803144 L26.9715637,15.8393891 L26.9802591,15.8207298 L26.9838953,15.8130465 L26.9921164,15.7948575 L26.9959108,15.7862334 L27.00761,15.7595771 L27.0191512,15.7327641 L27.0213645,15.7279032 L27.0305342,15.705951 L27.0417592,15.6788243 L27.0525098,15.6516976 L27.0632605,15.6244142 L27.070533,15.6051276 L27.0736949,15.5969739 L27.0768569,15.5885066 L27.0836551,15.5695336 L27.0863428,15.5621639 L31.1219512,15.2600072 L31.1219512,15.2600072 Z" id="Perdoo-(B)" fill="#009CDF"></path>
    </g>
</svg>