<svg width="15" height="13" viewBox="0 0 15 13" xmlns="http://www.w3.org/2000/svg">
  <path d="M14.67 1.654c-.535.238-1.113.4-1.72.47.62-.37 1.094-.956 1.318-1.655-.58.34-1.22.59-1.9.72C11.82.61 11.04.25 10.18.25c-1.65 0-2.992 1.34-2.992 2.994 0 .235.027.463.078.682C4.776 3.8 2.57 2.61 1.093.798c-.258.442-.405.956-.405 1.506 0 1.038.528 1.955 1.332 2.492-.49-.016-.953-.15-1.356-.375v.04c0 1.45 1.032 2.66 2.4 2.94-.25.07-.514.107-.788.107-.193 0-.38-.02-.563-.053.38 1.19 1.487 2.055 2.797 2.08-1.025.8-2.316 1.28-3.72 1.28-.24 0-.48-.013-.713-.04 1.326.85 2.9 1.344 4.59 1.344 5.507 0 8.52-4.56 8.52-8.52 0-.13-.004-.257-.01-.386.585-.42 1.093-.95 1.494-1.55z" fill="#6F6F6F" fill-rule="evenodd"/>
</svg>
