<?xml version="1.0" encoding="UTF-8" standalone="no"?>
<svg width="37px" height="37px" viewBox="0 0 37 37" version="1.1" xmlns="http://www.w3.org/2000/svg" xmlns:xlink="http://www.w3.org/1999/xlink">
    <!-- Generator: Sketch 3.6.1 (26313) - http://www.bohemiancoding.com/sketch -->
    <title>twitter-logo</title>
    <desc>Created with Sketch.</desc>
    <defs></defs>
    <g id="Page-1" stroke="none" stroke-width="1" fill="none" fill-rule="evenodd">
        <g id="home" transform="translate(-1104.000000, -4061.000000)">
            <g id="twitter-logo" transform="translate(1104.000000, 4061.000000)">
                <rect id="Rectangle-5" stroke="#FFFFFF" opacity="0.3" x="0" y="0" width="37" height="37" rx="100"></rect>
                <path d="M26.6711777,13.6539202 C26.1346723,13.8924 25.5572846,14.0532627 24.951457,14.125251 C25.5700232,13.7549408 26.0443166,13.1683694 26.267984,12.4686312 C25.6894113,12.8119828 25.0489227,13.0611275 24.3666631,13.1956242 C23.8206777,12.6137928 23.0424337,12.25 22.1812402,12.25 C20.5278791,12.25 19.187356,13.5905231 19.187356,15.2441804 C19.187356,15.4785128 19.2137221,15.7069201 19.264973,15.92644 C16.7764882,15.8014233 14.5700317,14.6096168 13.0932345,12.7980591 C12.8354986,13.2400614 12.687967,13.7543483 12.687967,14.3035924 C12.687967,15.3422386 13.2164737,16.2588305 14.0198988,16.7956322 C13.5293118,16.7799311 13.0674609,16.6451381 12.6636746,16.4208783 C12.6633784,16.4333207 12.6633784,16.4460593 12.6633784,16.458798 C12.6633784,17.9092292 13.6955071,19.1191068 15.0653587,19.3946176 C14.8141402,19.4627547 14.5495906,19.4994894 14.2764498,19.4994894 C14.0832959,19.4994894 13.8957708,19.4808258 13.7129857,19.4455723 C14.0942571,20.6350087 15.1998554,21.5009422 16.5098649,21.5249383 C15.4851424,22.3280671 14.194389,22.8068042 12.7913576,22.8068042 C12.5499153,22.8068042 12.3114355,22.7925843 12.0771032,22.764737 C13.4025176,23.614673 14.976188,24.11 16.6668764,24.11 C22.1744265,24.11 25.1857893,19.5477779 25.1857893,15.5910871 C25.1857893,15.4613304 25.1831231,15.3318699 25.1774944,15.2032982 C25.7622883,14.7820333 26.2700577,14.2544152 26.6711777,13.6539202 L26.6711777,13.6539202 Z" id="Shape" fill="#6F6F6F"></path>
            </g>
        </g>
    </g>
</svg>